<svg width="232" height="242" viewBox="0 0 232 242" fill="none" xmlns="http://www.w3.org/2000/svg">
<g style="mix-blend-mode:multiply" opacity="0.4">
<path d="M116 4.33552L140.879 39.5855L141.957 41.1127L143.727 40.5108L184.574 26.6165L183.982 69.7579L183.956 71.627L185.742 72.1802L226.955 84.9487L201.118 119.503L199.998 121L201.118 122.497L226.955 157.051L185.742 169.82L183.956 170.373L183.982 172.242L184.574 215.384L143.727 201.489L141.957 200.887L140.879 202.414L116 237.664L91.1209 202.414L90.0431 200.887L88.2734 201.489L47.4263 215.384L48.0182 172.242L48.0438 170.373L46.2583 169.82L5.04549 157.051L30.8822 122.497L32.0016 121L30.8822 119.503L5.04549 84.9487L46.2583 72.1802L48.0438 71.627L48.0182 69.7579L47.4263 26.6164L88.2734 40.5108L90.0431 41.1127L91.1209 39.5855L116 4.33552Z" stroke="#FFCB2F" stroke-width="5"/>
</g>
</svg>
