<?xml version="1.0" encoding="UTF-8"?>
<svg id="_圖層_2" data-name="圖層 2" xmlns="http://www.w3.org/2000/svg" xmlns:xlink="http://www.w3.org/1999/xlink" viewBox="0 0 241.09 250.03">
  <defs>
    <style>
      .cls-1 {
        fill: url(#_未命名漸層);
      }

      .cls-2 {
        fill: #fff;
        stroke: #f74a96;
        stroke-miterlimit: 10;
      }
    </style>
    <linearGradient id="_未命名漸層" data-name="未命名漸層" x1="120.54" y1="944.03" x2="120.54" y2="694" gradientTransform="translate(0 -694)" gradientUnits="userSpaceOnUse">
      <stop offset="0" stop-color="#fed4c2"/>
      <stop offset="1" stop-color="#f74794"/>
    </linearGradient>
  </defs>
  <path class="cls-1" d="M17.89,223.78c-.19-1.17-.39-2.33-.58-3.69-.39-1.75-.58-3.89-.97-6.42-1.75-12.25-3.5-22.16-5.06-29.36-.78-4.67-2.14-8.94-4.28-13.22l-7-12.25,11.47-7.39-.19-66.3,4.47-.58-.19-59.11,69.8-8.17v-3.89L163.51,4.28v3.89L233.31,0l.19,59.11,7.39-.97,.19,70.19-9.53,1.17,.19,92.94-77.96,9.14v-1.94l-33.83,3.89v2.14l-77.96,9.14v-11.08l-21.58,16.33-2.53-26.25Z"/>
  <path class="cls-2" d="M226.31,115.29l-132.01,15.36c-.58,2.14-1.36,4.08-2.33,6.22l124.82-14.58,.19,87.1-48.02,5.64v-2.14l-63.77,7.39v1.94l-48.02,5.64v-31.5c-8.75,11.47-16.92,20.03-24.3,25.66-.19-1.36-.39-2.72-.58-4.47s-.58-3.5-.78-5.83c-1.75-12.83-3.5-22.94-5.06-30.52-1.17-6.22-3.11-12.05-6.03-17.69,4.28-2.72,8.17-5.64,11.86-8.94,3.5-3.5,6.42-7.58,8.94-11.86,.78-1.56,1.75-3.5,2.92-6.03l-17.3,1.94v-40.05l199.87-23.33-.39,40.05ZM172.46,22.36l46.08-5.44,.19,52.11L30.91,90.99V38.89l45.88-5.44v10.89l23.72-2.72v-14.78l48.22-5.64v14.78l23.72-2.72v-10.89Zm-3.69,151.65v-10.69l-63.77,7.39v10.69l63.77-7.39Z"/>
</svg>