<?xml version="1.0" encoding="UTF-8"?>
<svg id="_圖層_2" data-name="圖層 2" xmlns="http://www.w3.org/2000/svg" xmlns:xlink="http://www.w3.org/1999/xlink" viewBox="0 0 244.47 253.26">
  <defs>
    <style>
      .cls-1 {
        fill: url(#_未命名漸層_8);
      }

      .cls-2 {
        fill: #fff;
        stroke: #f74a96;
        stroke-miterlimit: 10;
      }
    </style>
    <linearGradient id="_未命名漸層_8" data-name="未命名漸層 8" x1="122.24" y1=".85" x2="122.24" y2="254.11" gradientTransform="translate(0 254.11) scale(1 -1)" gradientUnits="userSpaceOnUse">
      <stop offset="0" stop-color="#fed4c2"/>
      <stop offset="1" stop-color="#f74794"/>
    </linearGradient>
  </defs>
  <path class="cls-1" d="M18.01,226.58c-.12-1.09-.3-2.31-.53-3.67-.32-1.83-.63-3.94-.95-6.44-1.79-12.36-3.51-22.47-5.03-29.82-.76-4.64-2.21-9.14-4.32-13.34l-7.19-12.44,11.59-7.53-.12-67.19,4.49-.53-.1-59.86,70.78-8.26v-3.94L165.83,4.32v3.94L236.61,0l.16,59.88,7.49-.89,.22,71.19-9.66,1.14,.28,94.17-79.03,9.22v-1.97l-34.33,3.94v2.09l-79.03,9.22v-11.21l-21.8,16.48-2.88-26.69Z"/>
  <path class="cls-2" d="M229.28,116.68l-133.91,15.65c-.66,2.12-1.44,4.2-2.35,6.23l126.63-14.78,.26,88.22-48.74,5.7v-2.11l-64.63,7.55v1.97l-48.74,5.7v-31.93c-8.86,11.59-17.07,20.25-24.66,26-.14-1.31-.36-2.85-.65-4.61-.3-1.7-.57-3.65-.87-5.91-1.87-12.93-3.6-23.24-5.2-30.92-1.08-6.22-3.12-12.24-6.03-17.84,4.28-2.66,8.31-5.72,12.02-9.13,3.54-3.59,6.57-7.65,8.99-12.08,.85-1.48,1.85-3.49,3-6.05l-17.6,1.97v-40.7l202.51-23.65-.04,40.74ZM174.74,22.43l46.75-5.46,.14,52.9L31.14,92.1V39.24l46.61-5.46v11.14l24.08-2.78v-15.04l48.88-5.72v15.04l24.03-2.82v-11.18Zm-3.69,153.73v-10.9l-64.61,7.55v10.9l64.61-7.55Z"/>
</svg>